<svg width="353" height="353" viewBox="0 0 353 353" fill="none" xmlns="http://www.w3.org/2000/svg">
<path fill-rule="evenodd" clip-rule="evenodd" d="M88.2107 88.0237C88.2107 136.638 127.62 176.047 176.234 176.047C176.234 176.047 176.234 176.047 176.234 176.047L176.234 0.000244141C176.234 0.000244141 176.234 0.000244141 176.234 0.000244141C127.62 0.000246266 88.2107 39.4097 88.2107 88.0237Z" fill="black"/>
<path fill-rule="evenodd" clip-rule="evenodd" d="M264.461 264.786C264.461 313.4 303.87 352.81 352.484 352.81C352.484 352.81 352.484 352.81 352.484 352.81L352.484 176.763C352.484 176.763 352.484 176.763 352.484 176.763C303.87 176.763 264.461 216.172 264.461 264.786Z" fill="black"/>
<path fill-rule="evenodd" clip-rule="evenodd" d="M88.2871 264.708C39.7121 264.708 0.326893 304.054 0.263645 352.615V352.732L176.311 352.732C176.311 304.118 136.901 264.708 88.2871 264.708Z" fill="black"/>
<path fill-rule="evenodd" clip-rule="evenodd" d="M264.1 87.8667C215.52 87.8667 176.133 127.22 176.076 175.785V175.89L352.123 175.89C352.123 175.89 352.123 175.89 352.123 175.89C352.123 127.276 312.714 87.8667 264.1 87.8667Z" fill="black"/>
<path fill-rule="evenodd" clip-rule="evenodd" d="M88.3655 88.024C88.3655 136.638 48.956 176.047 0.341974 176.047C0.341912 176.047 0.341851 176.048 0.341789 176.048L0.341797 0.000488281C0.341858 0.000488281 0.34192 0.000488281 0.341981 0.000488281C48.956 0.000490406 88.3655 39.4099 88.3655 88.024Z" fill="black"/>
<path fill-rule="evenodd" clip-rule="evenodd" d="M264.612 264.786C264.612 313.4 225.202 352.81 176.588 352.81C176.588 352.81 176.588 352.81 176.588 352.81L176.588 176.763C176.588 176.763 176.588 176.763 176.588 176.763C225.202 176.763 264.612 216.172 264.612 264.786Z" fill="black"/>
<path fill-rule="evenodd" clip-rule="evenodd" d="M88.2871 264.864C39.7121 264.864 0.326896 225.518 0.263653 176.958L0.263653 176.841L176.311 176.841C176.311 176.841 176.311 176.841 176.311 176.841C176.311 225.455 136.901 264.864 88.2871 264.864Z" fill="black"/>
<path fill-rule="evenodd" clip-rule="evenodd" d="M264.1 88.0234C215.525 88.0234 176.139 48.6773 176.076 0.117101L176.076 -1.53905e-05L352.123 0C352.123 48.614 312.714 88.0234 264.1 88.0234Z" fill="black"/>
</svg>
