<?xml version="1.0" encoding="utf-8"?>
<!-- Generator: Adobe Illustrator 27.6.1, SVG Export Plug-In . SVG Version: 6.00 Build 0)  -->
<svg version="1.1" id="Layer_1" xmlns="http://www.w3.org/2000/svg" xmlns:xlink="http://www.w3.org/1999/xlink" x="0px" y="0px"
	 viewBox="0 0 207.4 207.3" style="enable-background:new 0 0 207.4 207.3;" xml:space="preserve">
<style type="text/css">
	.st0{enable-background:new    ;}
</style>
<g id="Layer_2_00000043443284768289360190000012268227382721297551_">
	<g id="Layer_1-2">
		<g class="st0">
			<path d="M174.8,130.2c-0.7-0.2-4.3-1.5-2.9-6.6l0.1-0.3c1.3-4.1,4.3-5.5,6.8-5.4l-0.6,2c-1.2,0.1-4.5,0.4-5.5,3.8l-0.1,0.2
				c-0.7,2.4-0.1,3.9,1.7,4.4c1.8,0.5,3.2-0.3,5.7-3.2c0.1-0.1,0.1-0.1,0.2-0.2c0.1-0.1,0.2-0.2,0.2-0.3c2-2.5,3.8-4.4,6.1-3.8
				c0.4,0.1,1.9,0.6,2.7,2.1c0.6,1.2,0.7,2.6,0.1,4.3c-1.7,5.6-6,5.6-7.2,5.5l0.6-1.9c1.4,0,4.7-0.3,5.9-4c0.6-1.8-0.1-3.7-1.5-4.1
				c-1.7-0.5-3.2,0.2-5.2,2.6l0,0l0,0c-0.2,0.2-0.4,0.5-0.6,0.7C179.3,128.4,177.3,130.9,174.8,130.2z"/>
		</g>
		<g class="st0">
			<path d="M167.8,148.2l-1.2,1.9c-3-2.8-3.7-7.2-1.7-10.4c0.6-1,1.5-1.8,2.5-2.5c0.1-0.1,0.3-0.2,0.5-0.3c0.1-0.1,0.2-0.1,0.4-0.2
				c0.1-0.1,0.3-0.1,0.5-0.2c2.5-1,5.5-0.6,7.9,0.9c4.1,2.6,5.6,7.8,3.2,11.6c-0.7,1.2-1.8,2.2-3.1,2.8l0,0l0,0c0,0,0,0,0,0l0,0
				c-2.2,1-4.8,1.1-7.2,0.1l0.9-1.4c2,1.3,4.2,1.6,6,0.9l0.1,0l0.1,0l0.1,0c0,0,0,0,0.1,0l0.4-0.2c0.5-0.3,1-0.8,1.3-1.4
				c0.4-0.6,0.7-1.4,0.8-2.2c0.3-1.8-0.2-3.9-1.3-5.8c-2.1-3.8-6.3-5.7-9.3-4.4l-0.1,0.1c-0.2,0.1-0.4,0.2-0.6,0.3
				c-0.5,0.4-1,0.8-1.3,1.4c-0.4,0.6-0.6,1.4-0.8,2.2c-0.3,1.8,0.2,3.9,1.3,5.8C167.2,147.4,167.5,147.8,167.8,148.2z M176.4,151.2
				C176.4,151.2,176.4,151.2,176.4,151.2C176.4,151.2,176.4,151.2,176.4,151.2L176.4,151.2z"/>
		</g>
		<g class="st0">
			<path d="M149.4,158.3L149.4,158.3l1.4-1.4l0.1,0.1c5.9,6.2,9.3,3.2,12.2,0.4l-6-6.4l1.3-1.3l12.1,12.8l-0.9,0.9
				c0,0-0.7,0.7-3.1,3c-2.4,2.3-5.8,3.8-7.9,1.6c-1.5-1.6-1.3-4.8,0.8-7C155.9,162.7,152.6,161.6,149.4,158.3z M160.6,160.5
				c-0.4,0.4-0.8,0.9-1,1.5c-1,2.2-0.2,4.7,1.7,5.5c1.3,0.6,2.8,0.1,4-0.9l3.5-3.3l-5.3-5.6l-1.6,1.5L160.6,160.5z"/>
		</g>
		<g class="st0">
			<path d="M136.5,176.7c-2.3-4.3-1-9.5,2.9-11.7c1.1-0.6,2.2-0.9,3.4-0.9c0.2,0,0.4,0,0.6,0c0.1,0,0.3,0,0.4,0c0.1,0,0.3,0,0.5,0.1
				c2.7,0.4,5.1,2.1,6.5,4.6c2.3,4.3,1,9.5-2.9,11.7c-1.3,0.7-2.7,1-4.1,0.9l-0.1,0l0,0c0,0,0,0-0.1,0l0,0l0,0
				C140.7,181.2,138,179.4,136.5,176.7z M143.6,180.6l0.2,0l0,0l0,0c0,0,0.1,0,0.1,0l0.5,0c0.6-0.1,1.2-0.2,1.8-0.5
				c0.6-0.4,1.2-0.9,1.7-1.5c1.1-1.4,1.7-3.4,1.7-5.5c0-4.2-2.6-7.9-5.8-8.1l-0.2,0c-0.2,0-0.4,0-0.6,0c-0.6,0.1-1.2,0.2-1.8,0.5
				c-0.6,0.4-1.2,0.9-1.7,1.5c-1.1,1.4-1.7,3.4-1.7,5.5C137.8,176.8,140.4,180.3,143.6,180.6z"/>
		</g>
		<g class="st0">
			<path d="M117.5,174.2l-0.2-0.7l11.2-3l4.6,17l-1.6,0.4l-4.5-16.3L117.5,174.2z"/>
		</g>
		<g class="st0">
			<path d="M103.6,175.6l-0.1-0.7l11.6-0.9l1.3,17.7l-1.7,0.1l-1.3-16.9L103.6,175.6z"/>
		</g>
		<g class="st0">
			<path d="M71.1,176.1c1.9-5.1,5.9-6.6,9.4-5.3l4.8,1.8c0.4,0.1,1.8,0.7,1.8,0.7l-6.1,16.5c0,0-1.5-0.5-3.3-1.2
				C70.9,186,69.1,181.7,71.1,176.1z M73.3,177c-3.1,8.3,1.9,10,6.3,11.6l5.7-15.4l-3-1.1C78.1,170.5,74.6,173.2,73.3,177z"/>
		</g>
		<g class="st0">
			<path d="M52.2,165c2.8-4,8.1-5.1,11.8-2.4c1,0.7,1.8,1.6,2.3,2.7c0.1,0.2,0.2,0.3,0.2,0.5c0.1,0.1,0.1,0.2,0.2,0.4
				c0.1,0.1,0.1,0.3,0.2,0.5c0.8,2.6,0.3,5.5-1.4,7.8c-2.8,4-8.1,5.1-11.8,2.5c-1.2-0.8-2.1-2-2.6-3.3l0-0.1l0,0c0,0,0,0,0-0.1l0,0
				l0,0C50,170.8,50.4,167.5,52.2,165z M51.8,173.1l0.1,0.1l0,0l0,0c0,0,0,0.1,0,0.1l0.2,0.4c0.3,0.5,0.7,1,1.3,1.4
				c0.6,0.4,1.3,0.7,2.1,0.9c1.8,0.4,3.8,0.1,5.7-0.9c3.8-1.9,5.9-5.8,4.8-8.8l0-0.2c-0.1-0.2-0.2-0.4-0.3-0.6
				c-0.3-0.5-0.7-1-1.3-1.4c-0.6-0.4-1.3-0.7-2.1-0.9c-1.7-0.4-3.8-0.1-5.7,0.9C52.8,166.2,50.7,170.1,51.8,173.1z"/>
		</g>
		<g class="st0">
			<path d="M27.2,149.4l17.7-5.9l1.3,1.7l-10,12l14.3-6.3l1.2,1.6L41.3,168l-1.6-2.1l10.9-13.9l-15.9,7.3l-1-1.4l11.3-13.4
				l-16.3,6.8L27.2,149.4z"/>
		</g>
		<g class="st0">
			<path d="M18.6,128.9l16.7-5.9l0.6,1.6l0,0l-12,14.8l15.4-5.4l0.6,1.6L23,141.5l-0.6-1.6l12.1-14.8l-15.4,5.4L18.6,128.9z"/>
		</g>
		<g class="st0">
			<path d="M24.5,108.3c1.4,0,2.5,1.1,2.6,2.5c0,1.4-1.1,2.5-2.5,2.6s-2.5-1.1-2.6-2.5S23.1,108.3,24.5,108.3z"/>
		</g>
		<g class="st0">
			<path d="M33,76.2c0.7,0.2,4.3,1.6,2.8,6.7l-0.1,0.3c-1.3,4.1-4.4,5.4-6.9,5.3l0.7-2c1.2-0.1,4.5-0.3,5.6-3.7l0.1-0.2
				c0.7-2.4,0.2-3.9-1.6-4.4c-1.8-0.5-3.2,0.2-5.7,3.1c-0.1,0.1-0.1,0.1-0.2,0.2c-0.1,0.1-0.2,0.2-0.2,0.3c-2.1,2.5-3.8,4.4-6.2,3.7
				c-0.4-0.1-1.9-0.7-2.7-2.2c-0.6-1.2-0.6-2.6-0.1-4.3c1.8-5.6,6-5.5,7.3-5.4l-0.6,1.9c-1.4-0.1-4.7,0.2-5.9,4
				c-0.6,1.8,0.1,3.7,1.5,4.1c1.7,0.5,3.2-0.2,5.3-2.6l0,0l0,0c0.2-0.2,0.4-0.5,0.6-0.7C28.5,77.9,30.5,75.4,33,76.2z"/>
		</g>
		<g class="st0">
			<path d="M40.3,58.3l1.2-1.9c3,2.9,3.6,7.2,1.6,10.4c-0.6,1-1.5,1.8-2.6,2.4c-0.1,0.1-0.3,0.2-0.5,0.3c-0.1,0.1-0.2,0.1-0.4,0.2
				c-0.1,0.1-0.3,0.1-0.5,0.2c-2.5,0.9-5.5,0.5-7.9-1c-4.1-2.6-5.5-7.8-3-11.6c0.8-1.2,1.9-2.1,3.2-2.8l0,0l0,0c0,0,0,0,0,0l0,0
				c2.2-1,4.8-1,7.2,0l-0.9,1.4c-2-1.3-4.2-1.7-6-0.9l-0.1,0l-0.1,0l-0.1,0c0,0,0,0-0.1,0l-0.4,0.2c-0.5,0.3-1,0.8-1.3,1.4
				c-0.4,0.6-0.7,1.4-0.8,2.2c-0.3,1.8,0.1,3.9,1.2,5.8c2.1,3.8,6.2,5.8,9.2,4.5l0.1-0.1c0.2-0.1,0.4-0.2,0.6-0.3
				c0.5-0.3,1-0.8,1.3-1.4c0.4-0.6,0.7-1.4,0.8-2.2c0.3-1.8-0.1-3.9-1.2-5.8C40.8,59,40.6,58.7,40.3,58.3z M31.7,55.1
				C31.7,55.1,31.7,55.1,31.7,55.1C31.7,55.1,31.7,55.1,31.7,55.1L31.7,55.1z"/>
		</g>
		<g class="st0">
			<path d="M58.8,48.4L58.8,48.4l-1.5,1.4l-0.1-0.1c-5.8-6.3-9.2-3.3-12.2-0.6l6,6.5l-1.4,1.2l-12-13l1-0.9c0,0,0.7-0.7,3.2-2.9
				c2.4-2.3,5.9-3.7,7.9-1.5c1.5,1.7,1.2,4.8-0.9,7C52.4,43.9,55.7,45.1,58.8,48.4z M47.6,46.1c0.4-0.4,0.8-0.9,1.1-1.5
				c1-2.2,0.2-4.7-1.7-5.5c-1.3-0.6-2.8-0.2-4,0.8l-3.5,3.3l5.2,5.6l1.6-1.5L47.6,46.1z"/>
		</g>
		<g class="st0">
			<path d="M71.9,30.1c2.3,4.3,1,9.5-3,11.7c-1.1,0.6-2.2,0.9-3.4,0.9c-0.2,0-0.4,0-0.6,0c-0.1,0-0.3,0-0.4,0c-0.1,0-0.3,0-0.5-0.1
				c-2.7-0.4-5.1-2.2-6.4-4.7c-2.3-4.3-1-9.5,3-11.7c1.3-0.7,2.7-1,4.1-0.9l0.1,0l0,0c0,0,0,0,0.1,0h0l0,0
				C67.7,25.5,70.4,27.4,71.9,30.1z M64.8,26.1l-0.2,0l0,0l0,0c0,0-0.1,0-0.1,0H64c-0.6,0-1.2,0.2-1.8,0.5c-0.6,0.3-1.2,0.9-1.7,1.5
				c-1.1,1.4-1.8,3.4-1.7,5.5c0,4.2,2.6,7.9,5.7,8.2l0.2,0c0.2,0,0.4,0,0.6,0c0.6-0.1,1.2-0.2,1.8-0.5c0.6-0.3,1.2-0.8,1.7-1.5
				c1.1-1.4,1.7-3.3,1.7-5.5C70.5,30.1,68,26.4,64.8,26.1z"/>
		</g>
		<g class="st0">
			<path d="M90.9,32.9l0.2,0.7l-11.2,2.9l-4.5-17.1L77,19l4.3,16.4L90.9,32.9z"/>
		</g>
		<g class="st0">
			<path d="M104.8,31.8l0,0.7l-11.6,0.7l-1-17.7l1.7-0.1l1,16.9L104.8,31.8z"/>
		</g>
		<g class="st0">
			<path d="M137.3,31.6c-1.9,5.1-6,6.6-9.5,5.2L123,35c-0.4-0.2-1.8-0.7-1.8-0.7l6.3-16.4c0,0,1.5,0.5,3.3,1.2
				C137.7,21.8,139.4,26.1,137.3,31.6z M135.2,30.8c3.2-8.3-1.8-10-6.2-11.7l-5.9,15.4l3,1.1C130.3,37.2,133.8,34.5,135.2,30.8z"/>
		</g>
		<g class="st0">
			<path d="M156,43c-2.9,3.9-8.2,5-11.8,2.3c-1-0.7-1.7-1.6-2.3-2.7c-0.1-0.2-0.2-0.3-0.2-0.5c-0.1-0.1-0.1-0.3-0.2-0.4
				c-0.1-0.1-0.1-0.3-0.2-0.5c-0.8-2.6-0.2-5.5,1.5-7.8c2.9-3.9,8.2-5,11.8-2.3c1.2,0.8,2,2,2.6,3.3l0,0.1l0,0c0,0,0,0,0,0.1l0,0
				l0,0C158.3,37.3,157.9,40.5,156,43z M156.6,34.9l-0.1-0.1l0,0l0,0c0,0,0-0.1,0-0.1l-0.2-0.5c-0.3-0.5-0.7-1-1.2-1.4
				c-0.6-0.4-1.3-0.7-2.1-0.9c-1.8-0.4-3.8-0.1-5.7,0.8c-3.8,1.8-6,5.7-4.9,8.7l0,0.2c0.1,0.2,0.2,0.4,0.3,0.6
				c0.3,0.5,0.7,1,1.2,1.4c0.6,0.4,1.3,0.7,2.1,0.9c1.7,0.4,3.8,0.1,5.7-0.8C155.5,41.8,157.7,38,156.6,34.9z"/>
		</g>
		<g class="st0">
			<path d="M180.9,59l-17.8,5.6l-1.2-1.7L172,51l-14.4,6.1l-1.2-1.7l10.7-15.3l1.5,2.1L157.5,56l16-7.1l1,1.4L163,63.6l16.4-6.6
				L180.9,59z"/>
		</g>
		<g class="st0">
			<path d="M189.1,79.6l-16.7,5.6l-0.5-1.6l0,0l12.3-14.5l-15.4,5.2l-0.5-1.6l16.7-5.6l0.5,1.6l-12.3,14.5l15.4-5.2L189.1,79.6z"/>
		</g>
		<g class="st0">
			<path d="M183.1,100.1c-1.4,0-2.5-1.2-2.5-2.6c0-1.4,1.2-2.5,2.6-2.5c1.4,0,2.5,1.2,2.5,2.6C185.6,98.9,184.5,100.1,183.1,100.1z"
				/>
		</g>
	</g>
</g>
</svg>
