<svg xmlns="http://www.w3.org/2000/svg" viewBox="0 0 207.38 207.34">
    <defs>
        <style>.cls-1{font-size:24px;font-family:Manrope-Bold, Manrope;font-weight:700;}</style>
    </defs>
    <g id="Layer_2" data-name="Layer 2">
        <g id="Layer_1-2" data-name="Layer 1">
            <text class="cls-1" transform="translate(162.75 84.78) rotate(79.49)">S</text>
            <text class="cls-1" transform="translate(165.7 99.32) rotate(94.19)">C</text>
            <text class="cls-1" transform="translate(164.48 116.01) rotate(108.84)">R</text>
            <text class="cls-1" transform="translate(159.93 130.17) rotate(123.5)">O</text>
            <text class="cls-1" transform="matrix(-0.73, 0.68, -0.68, -0.73, 150.35, 144.29)">L</text>
            <text class="cls-1" transform="matrix(-0.85, 0.53, -0.53, -0.85, 141.63, 152.55)">L</text>
            <text class="cls-1" transform="matrix(-0.9, 0.43, -0.43, -0.9, 132.11, 158.3)"> </text>
            <text class="cls-1" transform="translate(128.04 160.22) rotate(158.98)"> </text>
            <text class="cls-1" transform="translate(123.86 161.84) rotate(163.08)"> </text>
            <text class="cls-1" transform="matrix(-0.99, 0.13, -0.13, -0.99, 120.01, 163.58)">D</text>
            <text class="cls-1" transform="translate(104.35 165.87) rotate(-172.24)">O</text>
            <text class="cls-1" transform="translate(88.16 164.34) rotate(-154.85)">W</text>
            <text class="cls-1" transform="translate(68.18 154.64) rotate(-137.2)">N</text>
            <text class="cls-1" transform="matrix(-0.61, -0.79, 0.79, -0.61, 56.38, 143.08)"> </text>
            <text class="cls-1" transform="translate(53.39 140.1) rotate(-118.02)">•</text>
            <text class="cls-1" transform="translate(46.21 125.65) rotate(-109.14)"> </text>
            <text class="cls-1" transform="translate(44.39 121.8) rotate(-99.75)">S</text>
            <text class="cls-1" transform="translate(41.63 107.23) rotate(-85.04)">C</text>
            <text class="cls-1" transform="translate(43.08 90.54) rotate(-70.39)">R</text>
            <text class="cls-1" transform="matrix(0.56, -0.83, 0.83, 0.56, 47.82, 76.44)">O</text>
            <text class="cls-1" transform="translate(57.58 62.46) rotate(-42.3)">L</text>
            <text class="cls-1" transform="translate(66.43 54.31) rotate(-31.05)">L</text>
            <text class="cls-1" transform="translate(76.02 48.7) rotate(-24.41)"> </text>
            <text class="cls-1" transform="translate(80.12 46.82) rotate(-20.25)"> </text>
            <text class="cls-1" transform="translate(84.35 45.25) rotate(-16.12)"> </text>
            <text class="cls-1" transform="translate(88.2 43.57) rotate(-6.73)">D</text>
            <text class="cls-1" transform="translate(103.87 41.5) rotate(8.52)">O</text>
            <text class="cls-1" transform="matrix(0.9, 0.44, -0.44, 0.9, 120.04, 43.24)">W</text>
            <text class="cls-1" transform="matrix(0.72, 0.69, -0.69, 0.72, 139.91, 53.22)">N</text>
            <text class="cls-1" transform="translate(151.54 64.93) rotate(53.23)"> </text>
            <text class="cls-1" transform="matrix(0.46, 0.89, -0.89, 0.46, 154.48, 67.94)">•</text>
        </g>
    </g>
</svg>